# xmcd
#
# Track frame offsets:
#	150
#	8348
#	35179
#	66432
#	81773
#	83529
#	84319
#	105925
#	108586
#	153226
#	175764
#	186112
#	194569
#	240277
#	251104
#	264806
#
# Disc length: 3578 seconds
#
# Revision: 0
# Processed by: cddbd v1.5.2PL0 Copyright (c) Steve Scherf et al.
# Submitted via: audiograbber 1.83.01
#
DISCID=ba0df810
DTITLE=Sehgal - Wahnideen - gelingen , dass ihm nichts gelingt, meint alles fal
DTITLE=sch zu machen
DYEAR=2009
DGENRE=
TTITLE0=Thema: Wrong, falsch, Unrecht
TTITLE1=Wahnidee Unrecht erlitten
TTITLE2=Del. wrong fancied has done
TTITLE3=DD - wrong has suffered - has done
TTITLE4=Wahnidee an den falschen Plätzen
TTITLE5=Beispiel Fall
TTITLE6=Bsp. Wahnidee falsche Plätze
TTITLE7=Wahnidee Erfolg keinen, macht alles falsch
TTITLE8=Fall Arg.-N
TTITLE9=Fall Arg.-N - Besprechung
TTITLE10=Bett bleiben, möchte im
TTITLE11=Arg.-N. - Rubriken
TTITLE12=Wrong Falsch Unrecht
TTITLE13=Tadelt sich selbst
TTITLE14=Wahnidee, Erfolg, keinen, macht alles falsch
TTITLE15=plus Ehrgeizig
EXTD=
EXTT0=
EXTT1=
EXTT2=
EXTT3=
EXTT4=
EXTT5=
EXTT6=
EXTT7=
EXTT8=
EXTT9=
EXTT10=
EXTT11=
EXTT12=
EXTT13=
EXTT14=
EXTT15=
PLAYORDER=
